<?xml version="1.0" encoding="utf-8"?>
<!-- Generator: Adobe Illustrator 21.0.0, SVG Export Plug-In . SVG Version: 6.00 Build 0)  -->
<svg version="1.1" id="图形" xmlns="http://www.w3.org/2000/svg" xmlns:xlink="http://www.w3.org/1999/xlink" x="0px" y="0px"
	 viewBox="438.651 389.297 295.979 295.982" enable-background="new 438.651 389.297 295.979 295.982" xml:space="preserve">
<path d="M692.423,598.058l1.842,0.851c-8.717-5.036-14.112-14.321-14.173-24.394v-56.731c-1.286-42.169-31.914-77.672-73.414-85.097
	v-3.404c0-11.044-8.947-19.998-19.983-19.998s-19.983,8.953-19.983,19.998v1.986c-41.5,7.425-72.129,42.928-73.414,85.097v56.731
	c-0.061,10.073-5.455,19.358-14.173,24.394l1.842-0.851c-4.814,1.94-7.998,6.579-8.078,11.772
	c-0.735,7.169,4.476,13.576,11.64,14.312c0.842,0.086,1.69,0.091,2.533,0.013h200.118c7.199,0.157,13.163-5.556,13.32-12.761
	c0.001-0.049,0.002-0.097,0.002-0.146C700.421,604.637,697.237,599.998,692.423,598.058L692.423,598.058z M587.12,665.285
	c15.655,0,28.345-12.7,28.345-28.366h-56.691C558.775,652.585,571.466,665.285,587.12,665.285z"/>
</svg>
