<?xml version="1.0" encoding="utf-8"?>
<!-- Generator: Adobe Illustrator 21.0.0, SVG Export Plug-In . SVG Version: 6.00 Build 0)  -->
<svg version="1.1" id="图形" xmlns="http://www.w3.org/2000/svg" xmlns:xlink="http://www.w3.org/1999/xlink" x="0px" y="0px"
	 viewBox="438.651 389.297 295.979 295.982" enable-background="new 438.651 389.297 295.979 295.982" xml:space="preserve">
<g>
	<path d="M586.681,409.284c-70.692,0-128,57.308-128,128s57.308,128,128,128s128-57.308,128-128S657.374,409.284,586.681,409.284z
		 M586.681,643.284c-58.449,0-106-47.551-106-106c0-58.449,47.551-106,106-106c58.449,0,106,47.551,106,106
		C692.681,595.733,645.13,643.284,586.681,643.284z"/>
	<path d="M636.761,493.505l-64.212,64.212l-35.949-35.949c-4.278-4.278-11.278-4.278-15.556,0v0c-4.278,4.278-4.278,11.278,0,15.556
		l43.495,43.495c0.075,0.08,0.142,0.165,0.22,0.243h0c4.278,4.278,11.278,4.278,15.556,0l72.002-72.002
		c4.278-4.278,4.278-11.278,0-15.556S641.039,489.227,636.761,493.505z"/>
</g>
</svg>
