<?xml version="1.0" encoding="utf-8"?>
<!-- Generator: Adobe Illustrator 21.0.0, SVG Export Plug-In . SVG Version: 6.00 Build 0)  -->
<svg version="1.1" id="图形" xmlns="http://www.w3.org/2000/svg" xmlns:xlink="http://www.w3.org/1999/xlink" x="0px" y="0px"
	 viewBox="438.651 389.297 295.979 295.982" enable-background="new 438.651 389.297 295.979 295.982" xml:space="preserve">
<path d="M585.654,409.288c-70.692,0-128,57.308-128,128s57.308,128,128,128s128-57.308,128-128S656.347,409.288,585.654,409.288z
	 M585.654,643.288c-58.449,0-106-47.551-106-106c0-27.438,10.48-52.473,27.646-71.317l140.534,157.108
	C630.355,635.783,608.866,643.288,585.654,643.288z M664.207,608.385L523.714,451.323c17.435-12.598,38.835-20.034,61.941-20.034
	c58.449,0,106,47.551,106,106C691.654,564.62,681.255,589.567,664.207,608.385z"/>
</svg>
