<?xml version="1.0" encoding="utf-8"?>
<!-- Generator: Adobe Illustrator 21.0.0, SVG Export Plug-In . SVG Version: 6.00 Build 0)  -->
<svg version="1.1" id="图形" xmlns="http://www.w3.org/2000/svg" xmlns:xlink="http://www.w3.org/1999/xlink" x="0px" y="0px"
	 viewBox="438.651 389.297 295.979 295.982" enable-background="new 438.651 389.297 295.979 295.982" xml:space="preserve">
<g>
	<path d="M703.92,515.921l-7.993-2.863c-7.218-2.443-13.045-7.842-16.014-14.839c-3.085-6.898-3.085-14.777,0-21.675l3.682-7.652
		c2.918-6.122,1.632-13.413-3.207-18.176l-8.469-8.439c-4.78-4.821-12.097-6.103-18.241-3.195L646,442.752
		c-6.925,3.077-14.836,3.077-21.762,0c-7.012-2.961-12.422-8.763-14.872-15.948l-1.76-7.016c-2.293-6.302-8.298-10.5-15.025-10.505
		h-11.837c-6.737,0-12.751,4.21-15.034,10.524l-2.883,7.964c-2.457,7.185-7.874,12.984-14.892,15.938
		c-6.923,3.074-14.83,3.074-21.752,0l-7.679-3.66c-6.142-2.91-13.459-1.632-18.241,3.186l-8.469,8.448
		c-4.838,4.763-6.125,12.054-3.207,18.176l3.682,7.652c3.085,6.898,3.085,14.777,0,21.675c-2.972,6.987-8.794,12.378-16.005,14.82
		l-7.993,2.873c-5.639,2.45-9.369,7.906-9.591,14.033v11.795c0.027,6.751,4.319,12.752,10.714,14.981l8.002,2.873
		c7.213,2.437,13.036,7.832,15.995,14.82c3.085,6.898,3.085,14.777,0,21.675l-3.673,7.652c-2.92,6.12-1.638,13.411,3.197,18.176
		l8.469,8.448c4.782,4.818,12.099,6.096,18.241,3.186l7.679-3.66c6.925-3.077,14.836-3.077,21.762,0
		c7.008,2.957,12.418,8.751,14.872,15.929l2.883,7.974c2.284,6.315,8.297,10.524,15.034,10.524h11.837
		c6.737,0,12.751-4.21,15.034-10.524l2.883-7.803c2.503-7.207,7.972-13.008,15.034-15.948c6.824-3.022,14.614-3.022,21.438,0
		l7.841,3.669c6.142,2.91,13.458,1.632,18.241-3.186l8.469-8.448c4.838-4.763,6.125-12.054,3.207-18.176l-3.682-7.652
		c-3.04-6.855-3.04-14.668,0-21.523c2.97-6.985,8.788-12.376,15.995-14.82l8.002-2.863c5.633-2.968,8.963-8.979,8.478-15.303
		v-11.795c-0.027-6.751-4.319-12.752-10.714-14.981L703.92,515.921z M633.696,546.204c-5.195,25.902-30.479,42.704-56.474,37.528
		c-25.995-5.176-42.857-30.37-37.662-56.273l0,0c5.621-25.812,31.177-42.197,57.081-36.596
		c25.306,5.471,41.694,29.959,37.035,55.341H633.696z"/>
</g>
</svg>
