<?xml version="1.0" encoding="utf-8"?>
<!-- Generator: Adobe Illustrator 21.0.0, SVG Export Plug-In . SVG Version: 6.00 Build 0)  -->
<svg version="1.1" id="图形" xmlns="http://www.w3.org/2000/svg" xmlns:xlink="http://www.w3.org/1999/xlink" x="0px" y="0px"
	 viewBox="438.651 389.297 295.979 295.982" enable-background="new 438.651 389.297 295.979 295.982" xml:space="preserve">
<g>
	<path d="M586.719,431.283c58.449,0,106,47.551,106,106c0,58.449-47.551,106-106,106c-58.449,0-106-47.551-106-106
		C480.719,478.834,528.271,431.283,586.719,431.283 M586.719,409.283c-70.692,0-128,57.308-128,128s57.308,128,128,128
		s128-57.308,128-128S657.412,409.283,586.719,409.283L586.719,409.283z"/>
</g>
<g>
	<path d="M586.764,454.625c-6.05,0-11,4.95-11,11v112.5c0,6.05,4.95,11,11,11s11-4.95,11-11v-112.5
		C597.764,459.575,592.814,454.625,586.764,454.625z"/>
	<circle cx="586.675" cy="608.94" r="11"/>
</g>
</svg>
