<?xml version="1.0" encoding="utf-8"?>
<!-- Generator: Adobe Illustrator 21.0.0, SVG Export Plug-In . SVG Version: 6.00 Build 0)  -->
<svg version="1.1" id="图形" xmlns="http://www.w3.org/2000/svg" xmlns:xlink="http://www.w3.org/1999/xlink" x="0px" y="0px"
	 viewBox="0 0 295.979 295.982" enable-background="new 0 0 295.979 295.982" xml:space="preserve">
<g>
	<ellipse cx="148.403" cy="88.385" rx="67.922" ry="68.407"/>
	<path d="M256.896,209.098c0.005-0.311,0.012-0.621,0.012-0.933c0-34.488-27.349-62.543-61.396-63.367
		c-12.508,11.259-29.013,18.108-47.108,18.108c-18.101,0-34.61-6.852-47.119-18.118c-34.395,0.427-62.147,28.635-62.147,63.377
		c0,0.709,0.016,1.414,0.039,2.118c0,0.036-0.001,0.071-0.001,0.107v35.81c0,16.446,13.238,29.779,29.568,29.779H227.36
		c16.33,0,29.568-13.332,29.568-29.779v-35.81C256.925,209.956,256.914,209.526,256.896,209.098z"/>
</g>
</svg>
